<svg width="22" height="21" viewBox="0 0 22 21" fill="none" xmlns="http://www.w3.org/2000/svg">
<g filter="url(#filter0_d_4907_78)">
<path d="M19.2414 4.62031L18.193 10.3695C18.1065 10.8445 17.8561 11.274 17.4855 11.5834C17.1149 11.8927 16.6476 12.0623 16.1648 12.0625H6.19609L6.57422 14.125H15.8125C16.2204 14.125 16.6192 14.246 16.9584 14.4726C17.2975 14.6992 17.5619 15.0213 17.718 15.3982C17.8741 15.7751 17.915 16.1898 17.8354 16.5899C17.7558 16.99 17.5594 17.3575 17.2709 17.6459C16.9825 17.9344 16.615 18.1308 16.2149 18.2104C15.8148 18.29 15.4001 18.2491 15.0232 18.093C14.6463 17.9369 14.3242 17.6725 14.0976 17.3334C13.871 16.9942 13.75 16.5954 13.75 16.1875C13.7501 15.9531 13.7908 15.7205 13.8703 15.5H8.81719C8.89672 15.7205 8.93743 15.9531 8.9375 16.1875C8.93812 16.5203 8.85821 16.8482 8.7046 17.1434C8.55099 17.4386 8.32823 17.6923 8.05534 17.8827C7.78245 18.0732 7.46753 18.1947 7.13746 18.2371C6.8074 18.2794 6.47199 18.2413 6.15986 18.1259C5.84774 18.0105 5.56816 17.8213 5.34501 17.5745C5.12185 17.3276 4.96174 17.0304 4.87833 16.7083C4.79493 16.3861 4.79071 16.0486 4.86605 15.7244C4.94138 15.4003 5.09402 15.0992 5.31094 14.8469L2.93047 1.75H1.375C1.19266 1.75 1.0178 1.67757 0.888864 1.54864C0.759933 1.4197 0.6875 1.24484 0.6875 1.0625C0.6875 0.880164 0.759933 0.705295 0.888864 0.576364C1.0178 0.447433 1.19266 0.375 1.375 0.375H2.93047C3.25139 0.375702 3.56196 0.488638 3.80838 0.694244C4.05479 0.899849 4.22152 1.18517 4.27969 1.50078L4.70078 3.8125H18.5625C18.6629 3.81271 18.7619 3.83517 18.8526 3.87826C18.9432 3.92135 19.0232 3.98401 19.0867 4.06172C19.1532 4.13699 19.2017 4.2264 19.2285 4.32318C19.2553 4.41996 19.2597 4.52157 19.2414 4.62031Z" fill="#C47F17"/>
<path d="M18.7495 4.53061L18.7498 4.52923C18.7542 4.5051 18.7532 4.48027 18.7466 4.45662C18.7401 4.43296 18.7282 4.41111 18.712 4.39272L18.7056 4.38556L18.6996 4.37817C18.6829 4.3577 18.6618 4.34118 18.6379 4.32983C18.6141 4.31853 18.5882 4.31261 18.5618 4.3125H4.70078H4.28363L4.20888 3.9021L3.78797 1.59141C3.78794 1.59126 3.78791 1.59111 3.78789 1.59096C3.7508 1.39029 3.64473 1.2089 3.48804 1.07815C3.33136 0.947417 3.13391 0.875559 2.92986 0.875H1.375C1.32527 0.875 1.27758 0.894754 1.24242 0.929917C1.20725 0.96508 1.1875 1.01277 1.1875 1.0625C1.1875 1.11223 1.20725 1.15992 1.24242 1.19508C1.27758 1.23025 1.32527 1.25 1.375 1.25H2.93047H3.34778L3.42241 1.66059L5.80288 14.7575L5.84551 14.992L5.6901 15.1728C5.52577 15.364 5.41013 15.5921 5.35307 15.8376C5.296 16.0832 5.29919 16.3389 5.36238 16.583C5.42556 16.827 5.54686 17.0522 5.71592 17.2392C5.88497 17.4262 6.09677 17.5695 6.33323 17.6569C6.56969 17.7443 6.82379 17.7732 7.07384 17.7411C7.32389 17.7091 7.56246 17.617 7.7692 17.4727C7.97593 17.3284 8.14469 17.1363 8.26106 16.9126C8.37744 16.689 8.43797 16.4405 8.4375 16.1884L8.4375 16.1877C8.43744 16.011 8.40677 15.8358 8.34685 15.6696L8.10531 15H8.81719H13.8703H14.5822L14.3407 15.6696C14.2807 15.8357 14.2501 16.0109 14.25 16.1875L18.7495 4.53061ZM18.7495 4.53061L17.7011 10.2798L17.7011 10.2799M18.7495 4.53061L17.7011 10.2799M17.7011 10.2799C17.6355 10.6397 17.4459 10.9652 17.1651 11.1995C16.8844 11.4339 16.5303 11.5623 16.1646 11.5625M17.7011 10.2799L19.2414 4.62031L18.193 10.3695C18.1065 10.8445 17.8561 11.274 17.4855 11.5834C17.1149 11.8927 16.6476 12.0623 16.1648 12.0625M16.1648 12.0625V11.5625H16.1646M16.1648 12.0625L16.1646 11.5625M16.1648 12.0625L16.1646 11.5625M16.1646 11.5625H6.19609H5.59609L5.70429 12.1527L6.08242 14.2152L6.15755 14.625H6.57422H15.8125C16.1215 14.625 16.4236 14.7166 16.6806 14.8883C16.9375 15.06 17.1378 15.304 17.2561 15.5896C17.3743 15.8751 17.4053 16.1892 17.345 16.4923C17.2847 16.7954 17.1359 17.0738 16.9174 17.2924C16.6988 17.5109 16.4204 17.6597 16.1173 17.72C15.8142 17.7803 15.5001 17.7493 15.2146 17.6311C14.929 17.5128 14.685 17.3125 14.5133 17.0556C14.3417 16.7987 14.25 16.4966 14.25 16.1877L16.1646 11.5625Z" stroke="black"/>
</g>
<defs>
<filter id="filter0_d_4907_78" x="-3.3125" y="0.375" width="26.565" height="25.8788" filterUnits="userSpaceOnUse" color-interpolation-filters="sRGB">
<feFlood flood-opacity="0" result="BackgroundImageFix"/>
<feColorMatrix in="SourceAlpha" type="matrix" values="0 0 0 0 0 0 0 0 0 0 0 0 0 0 0 0 0 0 127 0" result="hardAlpha"/>
<feOffset dy="4"/>
<feGaussianBlur stdDeviation="2"/>
<feComposite in2="hardAlpha" operator="out"/>
<feColorMatrix type="matrix" values="0 0 0 0 0 0 0 0 0 0 0 0 0 0 0 0 0 0 0.25 0"/>
<feBlend mode="normal" in2="BackgroundImageFix" result="effect1_dropShadow_4907_78"/>
<feBlend mode="normal" in="SourceGraphic" in2="effect1_dropShadow_4907_78" result="shape"/>
</filter>
</defs>
</svg>
